<svg width="126px" height="92px" viewBox="0 0 126 92" version="1.1" xmlns="http://www.w3.org/2000/svg" xmlns:xlink="http://www.w3.org/1999/xlink">
    <title>Placeholder</title>
    <g id="Placeholder" stroke="none" stroke-width="1" fill="none" fill-rule="evenodd">
        <path d="M126,0 L126,92 L0,92 L0,0 L126,0 Z M120,6 L6,6 L6,86 L120,86 L120,6 Z M84.9907227,37.2011719 L110.38623,76.6845703 L16.0117188,76.6845703 L37.3706055,55.0488281 L58.6958008,69.2954102 L84.9907227,37.2011719 Z M32,22 C36.9705627,22 41,26.0294373 41,31 C41,35.9705627 36.9705627,40 32,40 C27.0294373,40 23,35.9705627 23,31 C23,26.0294373 27.0294373,22 32,22 Z" id="Combined-Shape" fill="#D8D8D8"></path>
    </g>
</svg>